# xmcd
#
# Track frame offsets:
#	150
#	23988
#	41739
#	60164
#	78236
#	96911
#	116390
#	133935
#	153604
#	167293
#	183047
#
# Disc length: 2734 seconds
#
# Revision: 1
# Processed by: cddbd v1.5.2PL0 Copyright (c) Steve Scherf et al.
# Submitted via: audiograbber 1.83.01
#
DISCID=7f0aac0b
DTITLE=No One Zero - No One Zero
DYEAR=2008
DGENRE=Alternative Rock
TTITLE0=Lost
TTITLE1=Fading Away
TTITLE2=Delusions
TTITLE3=Back In Time
TTITLE4=Im Not Changing
TTITLE5=Fool
TTITLE6=On Her Way
TTITLE7=Lonely Chair
TTITLE8=Scar U
TTITLE9=Throwing Stones
TTITLE10=Be With You
EXTD=
EXTT0=
EXTT1=
EXTT2=
EXTT3=
EXTT4=
EXTT5=
EXTT6=
EXTT7=
EXTT8=
EXTT9=
EXTT10=
PLAYORDER=
